<svg width="67" height="30" viewBox="0 0 67 30" fill="none" xmlns="http://www.w3.org/2000/svg">
<path d="M22.2585 1.58909C21.3554 1.4624 18.9099 1.45154 18.8647 1.45154C16.2446 1.38216 14.7527 1.74957 14.5028 2.35769C14.1597 3.19083 14.2987 4.32201 14.4511 5.17808C14.6311 6.19162 15.0248 7.23713 16.0706 7.62384C16.3909 7.74329 16.7334 7.7813 17.0748 7.80844C17.9231 7.87662 18.7786 7.88265 19.6287 7.80724C20.0212 7.77225 20.415 7.72097 20.7907 7.60151C22.4 7.09173 23.0761 5.5835 23.3675 4.04389C23.5848 2.8916 23.161 1.71759 22.2579 1.58909H22.2585ZM27.9605 4.04389C28.2519 5.5835 28.928 7.09173 30.5373 7.60151C30.913 7.72097 31.3067 7.77225 31.6993 7.80663C32.5494 7.88265 33.4049 7.87662 34.255 7.80844C34.5945 7.7813 34.9371 7.74329 35.2574 7.62384C36.3032 7.23713 36.6987 6.19162 36.8781 5.17808C37.0292 4.32201 37.1683 3.19083 36.8257 2.35769C36.5747 1.74957 35.0852 1.38216 32.4633 1.45154C32.4193 1.45154 29.9726 1.4618 29.0701 1.58909C28.167 1.71759 27.7432 2.8916 27.9605 4.04389ZM24.993 3.26625C24.8967 3.43577 24.8124 3.65839 24.7654 3.94556C24.5162 5.47309 24.0436 7.10983 22.7257 8.06243C21.8822 8.67176 20.8105 8.88894 19.7858 8.99452C18.4872 9.12604 17.1741 9.04882 15.9032 8.75863C15.4396 8.65245 14.9779 8.51068 14.5907 8.2398C14.1151 7.9098 13.781 7.40725 13.5612 6.87213C13.4673 6.64529 12.8243 3.96546 12.8984 3.96546H12.7202C12.5311 3.96546 12.3758 3.82128 12.3607 3.63546C12.3156 3.01528 12.2367 1.71337 12.3728 1.317C12.5552 0.790329 13.7256 0.304678 16.4089 0.103781C19.0941 -0.0989256 22.6053 0.00242774 23.3915 0.345702C24.1766 0.687769 27.1532 0.687769 27.937 0.345702C28.7227 0.00242774 32.2357 -0.0989256 34.919 0.103781C37.603 0.304678 38.774 0.790329 38.9552 1.3164C39.0925 1.71337 39.0142 3.01528 38.9672 3.63546C38.954 3.82128 38.7969 3.96546 38.6096 3.96546H38.4302C38.5055 3.96546 37.8607 6.64529 37.7685 6.87213C37.547 7.40786 37.2135 7.9098 36.7378 8.2398C36.3501 8.51068 35.8883 8.65245 35.426 8.75863C34.1538 9.04882 32.8407 9.12604 31.5427 8.99392C30.5192 8.88834 29.4458 8.67236 28.6023 8.06243C27.2844 7.10983 26.8136 5.47309 26.5644 3.94556C26.5174 3.65839 26.4331 3.43577 26.335 3.26625C26.0406 2.75948 25.2874 2.75948 24.993 3.26625ZM40.0299 17.037C40.0299 16.2383 39.7764 15.5638 39.2695 15.0136C38.7619 14.4628 38.1039 14.1871 37.2947 14.1871C36.4856 14.1871 35.8245 14.4628 35.3116 15.0136C34.798 15.5638 34.5415 16.2383 34.5415 17.037C34.5415 17.8497 34.798 18.5284 35.3116 19.0792C35.8245 19.6294 36.4856 19.9051 37.2947 19.9051C38.1039 19.9051 38.7619 19.6294 39.2695 19.0786C39.7764 18.5284 40.0299 17.8497 40.0299 17.037ZM39.9034 8.19817H42.4573V21.9925H39.9576V20.7762C39.1605 21.7439 38.14 22.2284 36.8962 22.2284C35.4958 22.2284 34.3302 21.7349 33.4007 20.7491C32.4705 19.7627 32.0057 18.5254 32.0057 17.037C32.0057 15.5608 32.4735 14.3264 33.4097 13.3346C34.3453 12.3422 35.5078 11.8463 36.8962 11.8463C38.0919 11.8463 39.0937 12.312 39.9034 13.2435V8.19817ZM44.812 21.9925H47.3659V12.0997H44.8114V21.9919L44.812 21.9925ZM46.0979 7.85309C45.6512 7.85309 45.2767 8.0015 44.9745 8.29772C44.6729 8.59393 44.5218 8.96616 44.5218 9.41381C44.5218 9.86145 44.6729 10.2367 44.9745 10.5396C45.2767 10.8418 45.6512 10.9932 46.0979 10.9932C46.5447 10.9932 46.9191 10.8424 47.2208 10.5396C47.5224 10.2367 47.6735 9.86145 47.6735 9.41381C47.6735 8.96616 47.523 8.59393 47.2208 8.29772C46.9191 8.0015 46.5447 7.85309 46.0979 7.85309ZM64.2107 12.1003L61.9662 18.5435L59.4111 12.1003H56.4587L60.7712 21.8833L60.5701 22.337C60.0872 23.3776 59.4485 23.8983 58.6501 23.8983C58.2636 23.8983 57.841 23.7891 57.384 23.5713L56.9475 25.713C57.4665 26.04 58.1005 26.2029 58.8494 26.2029C59.829 26.2029 60.6495 25.8976 61.313 25.2865C61.9771 24.6753 62.5502 23.7408 63.0349 22.4824L67 12.1003H64.2107ZM53.0715 11.7552C53.0715 11.2002 53.228 10.7718 53.5423 10.4762C53.856 10.1794 54.3093 10.031 54.9006 10.031C55.3473 10.031 55.8789 10.1697 56.496 10.4485L57.328 8.48836C56.4219 8.00451 55.4863 7.76259 54.5207 7.76259C53.337 7.76259 52.3737 8.10104 51.6308 8.77854C50.8885 9.45664 50.517 10.4304 50.517 11.7009V12.1003H48.9956V14.242H50.5176V21.9925H53.0715V14.2414H56.1324V12.0997H53.0715V11.7546V11.7552ZM21.011 16.0386C20.8906 15.3979 20.6131 14.8923 20.1778 14.5231C19.7431 14.1545 19.2001 13.9699 18.548 13.9699C17.908 13.9699 17.362 14.1545 16.9086 14.5231C16.4559 14.8923 16.1507 15.3979 15.9935 16.0392H21.011V16.0386ZM22.0983 13.1802C23.0279 14.0694 23.4927 15.2826 23.4927 16.8192C23.4927 17.1704 23.4626 17.5456 23.4024 17.9444H15.9941C16.356 19.3482 17.3162 20.0499 18.8737 20.0499C19.4053 20.0499 19.9635 19.9576 20.5492 19.7687C21.135 19.5829 21.639 19.3422 22.0616 19.052L23.0761 20.8486C21.8322 21.756 20.3951 22.2103 18.7654 22.2103C17.0266 22.2103 15.6979 21.7077 14.7804 20.7032C13.8629 19.6994 13.4035 18.4789 13.4035 17.037C13.4035 15.5366 13.8809 14.2963 14.8346 13.3165C15.7888 12.3362 17.026 11.8463 18.548 11.8463C19.9851 11.8463 21.1682 12.2909 22.0983 13.1802ZM27.6962 13.4251V12.1003H25.2495V21.9925H27.8034V17.2904C27.8034 16.2624 28.0237 15.5059 28.465 15.022C28.9057 14.5394 29.4897 14.2957 30.214 14.2957C30.5752 14.2957 30.9672 14.362 31.3898 14.4954L31.6071 12.0454C31.2092 11.9 30.8124 11.8276 30.4121 11.8276C29.2044 11.8276 28.2989 12.3615 27.6968 13.4245L27.6962 13.4251ZM8.76709 8.57885H11.4113V21.9925H9.58347L2.64482 13.769V21.9919H0V8.57825H1.7026L8.76709 16.8735V8.57825V8.57885Z" fill="black"/>
<path d="M2.95786 29.9035L5.04518 24.8015H3.88743L2.55088 28.3289L1.2077 24.8015H0.02948L2.14449 29.9035H2.95726H2.95786ZM6.06084 25.7197C6.23122 25.7197 6.37331 25.6618 6.4883 25.5471C6.60269 25.4319 6.66048 25.2889 6.66048 25.1188C6.66048 24.9487 6.60269 24.8069 6.4883 24.6941C6.37331 24.5813 6.23122 24.5251 6.06084 24.5251C5.89106 24.5251 5.74837 24.5813 5.63338 24.6941C5.51899 24.8069 5.4618 24.9487 5.4618 25.1188C5.4618 25.2889 5.51899 25.4319 5.63399 25.5471C5.74837 25.6618 5.89106 25.7197 6.06144 25.7197H6.06084ZM6.54308 29.9035V26.1408H5.57197V29.9035H6.54308ZM9.10241 29.9928C9.57562 29.9928 9.96334 29.8088 10.2668 29.4408V29.9035H11.218V24.6561H10.2463V26.5757C9.93806 26.221 9.55696 26.0442 9.10241 26.0442C8.57441 26.0442 8.1319 26.2325 7.77609 26.6101C7.42027 26.9878 7.24207 27.4572 7.24207 28.0182C7.24207 28.5847 7.41907 29.0553 7.77248 29.4299C8.12648 29.8052 8.56959 29.9928 9.10241 29.9928ZM9.25413 29.1096C8.94648 29.1096 8.69361 29.0058 8.49554 28.7989C8.30288 28.5871 8.20655 28.3271 8.20655 28.0182C8.20655 27.7148 8.30409 27.4584 8.49975 27.249C8.69482 27.0391 8.94648 26.9347 9.25413 26.9347C9.56117 26.9347 9.81223 27.0391 10.0049 27.2484C10.1975 27.4584 10.2939 27.7148 10.2939 28.0182C10.2939 28.3271 10.1975 28.5853 10.0049 28.7953C9.81223 29.0046 9.56177 29.109 9.25413 29.109V29.1096ZM13.9766 29.9862C14.5967 29.9862 15.1428 29.8136 15.616 29.4685L15.2307 28.785C15.0693 28.8954 14.8779 28.9859 14.6551 29.0577C14.4324 29.1289 14.2199 29.1645 14.0176 29.1645C13.4251 29.1645 13.0603 28.8978 12.9218 28.3639H15.74C15.7629 28.2119 15.7744 28.0689 15.7744 27.9356C15.7744 27.351 15.598 26.8895 15.2445 26.5516C14.8905 26.2132 14.4402 26.0442 13.8935 26.0442C13.3156 26.0442 12.8442 26.2307 12.4811 26.6035C12.1187 26.9757 11.9369 27.4481 11.9369 28.0182C11.9369 28.566 12.1115 29.0311 12.4607 29.413C12.8098 29.7949 13.3156 29.9862 13.9766 29.9862ZM14.8309 27.6393H12.9224C12.982 27.395 13.0982 27.2026 13.2704 27.0626C13.4426 26.922 13.6503 26.8514 13.8935 26.8514C14.1416 26.8514 14.3487 26.922 14.5137 27.0626C14.6792 27.2026 14.7846 27.3944 14.8309 27.6387V27.6393ZM18.2855 30C18.8737 30 19.356 29.8088 19.7322 29.4269C20.1091 29.045 20.2976 28.5757 20.2976 28.0182C20.2976 27.4662 20.1091 26.998 19.7322 26.6137C19.356 26.2294 18.8737 26.037 18.2855 26.037C17.6973 26.037 17.2151 26.2294 16.8388 26.6137C16.4619 26.998 16.2735 27.4662 16.2735 28.0182C16.2735 28.5757 16.4619 29.045 16.8388 29.4269C17.2151 29.8088 17.6973 30 18.2855 30ZM18.2855 29.0951C17.9917 29.0951 17.7437 28.9919 17.5414 28.785C17.3439 28.5732 17.2452 28.3175 17.2452 28.0188C17.2452 27.7196 17.3451 27.4662 17.545 27.2587C17.7449 27.0517 17.9917 26.9486 18.2855 26.9486C18.5793 26.9486 18.8262 27.0517 19.026 27.2593C19.2259 27.4662 19.3259 27.7196 19.3259 28.0182C19.3259 28.3175 19.2259 28.572 19.026 28.7814C18.8262 28.9907 18.5793 29.0951 18.2855 29.0951ZM24.3614 29.9862C24.9171 29.9862 25.3669 29.8414 25.7118 29.5512C26.0562 29.2616 26.2284 28.8882 26.2284 28.4327C26.2284 27.8668 25.9394 27.4433 25.3602 27.1621C25.2278 27.0982 25.0219 27.0071 24.7437 26.8895C24.4662 26.7724 24.297 26.7 24.2374 26.6723C23.9617 26.5341 23.8238 26.3664 23.8238 26.1685C23.8238 26.0207 23.8828 25.9025 23.9996 25.8126C24.117 25.7227 24.2765 25.678 24.4788 25.678C24.6667 25.678 24.8641 25.7197 25.0712 25.8023C25.2777 25.885 25.4523 26.0026 25.595 26.1546L26.1387 25.409C25.6841 24.9487 25.126 24.7182 24.465 24.7182C23.955 24.7182 23.5378 24.86 23.2145 25.1429C22.8906 25.4265 22.7287 25.7818 22.7287 26.2095C22.7287 26.7483 22.9972 27.1718 23.5348 27.4801C23.6727 27.5585 23.8732 27.649 24.1375 27.7528C24.4018 27.8565 24.5679 27.9241 24.6372 27.9561C24.9442 28.1039 25.0983 28.2806 25.0983 28.4882C25.0983 28.6493 25.0297 28.7802 24.8918 28.8815C24.754 28.9829 24.5794 29.0336 24.368 29.0336C24.1068 29.0336 23.8575 28.9726 23.6209 28.8502C23.3843 28.7283 23.1832 28.5521 23.0176 28.3223L22.4324 29.0336C22.6432 29.3412 22.9189 29.5777 23.2591 29.7412C23.5992 29.9041 23.9665 29.9862 24.3614 29.9862ZM28.76 30C29.3482 30 29.8305 29.8088 30.2068 29.4269C30.5836 29.045 30.7721 28.5757 30.7721 28.0182C30.7721 27.4662 30.5836 26.998 30.2068 26.6137C29.8305 26.2294 29.3482 26.037 28.76 26.037C28.1724 26.037 27.6902 26.2294 27.3133 26.6137C26.9364 26.998 26.7486 27.4662 26.7486 28.0182C26.7486 28.5757 26.9364 29.045 27.3133 29.4269C27.6902 29.8088 28.1724 30 28.76 30ZM28.76 29.0951C28.4662 29.0951 28.2182 28.9919 28.0159 28.785C27.8184 28.5732 27.7197 28.3175 27.7197 28.0188C27.7197 27.7196 27.8196 27.4662 28.0195 27.2587C28.2194 27.0517 28.4662 26.9486 28.76 26.9486C29.0538 26.9486 29.3007 27.0517 29.5005 27.2593C29.7004 27.4662 29.8004 27.7196 29.8004 28.0182C29.8004 28.3175 29.7004 28.572 29.5005 28.7814C29.3007 28.9907 29.0538 29.0951 28.76 29.0951ZM32.456 29.9035V24.6561H31.4843V29.9035H32.456ZM35.0358 29.9928C35.5734 29.9928 35.9949 29.8456 36.3001 29.5512C36.6054 29.2568 36.7577 28.8447 36.7577 28.3156V26.1408H35.7866V28.3156C35.7866 28.5545 35.7203 28.7458 35.5867 28.8888C35.4542 29.0311 35.27 29.1023 35.0358 29.1023C34.801 29.1023 34.618 29.0311 34.4843 28.8882C34.3519 28.7458 34.2851 28.5545 34.2851 28.315V26.1408H33.3133V28.3156C33.3133 28.8447 33.4675 29.2568 33.7751 29.5512C34.0822 29.8456 34.503 29.9928 35.0358 29.9928ZM39.2279 29.9928C39.6596 29.9928 40.0292 29.8896 40.3369 29.6821L40.0479 28.9159C39.8179 29.045 39.609 29.109 39.4206 29.109C39.0672 29.109 38.8902 28.8882 38.8902 28.4466V26.9552H40.1304V26.1408H38.8902V24.8075H37.9257V26.1402H37.3055V26.9546H37.9184V28.5081C37.9184 28.9962 38.0292 29.3648 38.2496 29.6163C38.4699 29.8667 38.7962 29.9922 39.2279 29.9922V29.9928ZM41.3321 25.7197C41.5019 25.7197 41.6445 25.6618 41.7595 25.5471C41.8739 25.4319 41.9317 25.2889 41.9317 25.1188C41.9317 24.9487 41.8739 24.8069 41.7595 24.6941C41.6445 24.5813 41.5019 24.5251 41.3321 24.5251C41.1623 24.5251 41.0196 24.5813 40.9046 24.6941C40.7902 24.8069 40.733 24.9487 40.733 25.1188C40.733 25.2889 40.7902 25.4319 40.9052 25.5471C41.0196 25.6618 41.1623 25.7197 41.3327 25.7197H41.3321ZM41.8143 29.9035V26.1408H40.8438V29.9035H41.8149H41.8143ZM44.5254 30C45.113 30 45.5952 29.8088 45.9721 29.4269C46.3484 29.045 46.5368 28.5757 46.5368 28.0182C46.5368 27.4662 46.3484 26.998 45.9721 26.6137C45.5952 26.2294 45.113 26.037 44.5254 26.037C43.9372 26.037 43.4549 26.2294 43.078 26.6137C42.7017 26.998 42.5133 27.4662 42.5133 28.0182C42.5133 28.5757 42.7017 29.045 43.078 29.4269C43.4549 29.8088 43.9372 30 44.5254 30ZM44.5254 29.0951C44.231 29.0951 43.9835 28.9919 43.7812 28.785C43.5838 28.5732 43.485 28.3175 43.485 28.0188C43.485 27.7196 43.585 27.4662 43.7842 27.2587C43.9841 27.0517 44.231 26.9486 44.5248 26.9486C44.8192 26.9486 45.066 27.0517 45.2653 27.2593C45.4658 27.4662 45.5657 27.7196 45.5657 28.0182C45.5657 28.3175 45.4658 28.572 45.2659 28.7814C45.066 28.9907 44.8192 29.0951 44.5254 29.0951ZM48.2208 29.9035V27.8873C48.2208 27.6068 48.3002 27.3775 48.4586 27.2001C48.6169 27.0234 48.8252 26.9347 49.0823 26.9347C49.3213 26.9347 49.5128 27.0149 49.6573 27.176C49.8017 27.3371 49.874 27.5676 49.874 27.8668V29.9035H50.8457V27.6044C50.8457 27.1024 50.7036 26.7157 50.4189 26.4442C50.1341 26.1727 49.7873 26.037 49.3785 26.037C49.1124 26.037 48.8746 26.0955 48.6657 26.2132C48.4562 26.3308 48.3014 26.481 48.2003 26.6656V26.1408H47.249V29.9035H48.2208ZM52.9643 30C53.4141 30 53.7759 29.886 54.0492 29.658C54.3226 29.4305 54.4592 29.1415 54.4592 28.7916C54.4592 28.3778 54.2485 28.0598 53.8253 27.8384C53.7199 27.7841 53.4189 27.6617 52.9228 27.4728C52.7024 27.3992 52.5917 27.2846 52.5917 27.1278C52.5917 27.0403 52.6314 26.9655 52.7091 26.9033C52.7873 26.8412 52.8909 26.8104 53.0191 26.8104C53.3322 26.8104 53.6188 26.9347 53.8801 27.1833L54.3629 26.5546C54.0185 26.1957 53.5802 26.0165 53.0468 26.0165C52.6242 26.0165 52.2846 26.1221 52.0269 26.3338C51.7699 26.5456 51.6416 26.8171 51.6416 27.1483C51.6416 27.5905 51.8572 27.9144 52.2888 28.122C52.3719 28.1636 52.5327 28.2288 52.7711 28.3187C53.0101 28.4085 53.1594 28.4671 53.219 28.4948C53.3984 28.5775 53.4875 28.6861 53.4875 28.8194C53.4875 28.925 53.4381 29.0124 53.3394 29.0818C53.2407 29.1506 53.1179 29.185 52.971 29.185C52.7825 29.185 52.5959 29.1379 52.4098 29.0438C52.2232 28.9491 52.0637 28.8218 51.9306 28.6607L51.414 29.2749C51.7951 29.7581 52.3117 30 52.9643 30Z" fill="black"/>
</svg>
